<mxfile host="app.diagrams.net" modified="2023-08-09T18:02:51.598Z" agent="Mozilla/5.0 (Windows NT 10.0; Win64; x64; rv:109.0) Gecko/20100101 Firefox/116.0" version="21.6.6" etag="EkK3AKfnUUpu2DPbatub" type="github">
  <diagram name="PÃ¡gina-1" id="OQWFlFo9wRS8I2K6ZoKP">
    <mxGraphModel>
      <root>
        <mxCell id="0" />
        <mxCell id="1" parent="0" />
      </root>
    </mxGraphModel>
  </diagram>
</mxfile>
